<svg xmlns="http://www.w3.org/2000/svg" x="0px" y="0px"
width="50" height="50"
viewBox="0 0 172 172"
style=" fill:#000000;"><g fill="none" fill-rule="nonzero" stroke="none" stroke-width="1" stroke-linecap="butt" stroke-linejoin="miter" stroke-miterlimit="10" stroke-dasharray="" stroke-dashoffset="0" font-family="none" font-weight="none" font-size="none" text-anchor="none" style="mix-blend-mode: normal"><path d="M0,172v-172h172v172z" fill="none"></path><g fill="#2ecc71"><path d="M86,6.88c-0.17805,0.00415 -0.35551,0.02212 -0.53078,0.05375c-43.4081,0.29358 -78.58922,35.58971 -78.58922,79.06625c0,43.6583 35.4617,79.12 79.12,79.12c43.6583,0 79.12,-35.4617 79.12,-79.12c0,-43.47198 -35.17396,-78.76536 -78.57578,-79.06625c-0.17969,-0.03233 -0.36167,-0.0503 -0.54422,-0.05375zM86,13.76c39.94058,0 72.24,32.29942 72.24,72.24c0,39.94058 -32.29942,72.24 -72.24,72.24c-39.94058,0 -72.24,-32.29942 -72.24,-72.24c0,-39.94058 32.29942,-72.24 72.24,-72.24zM58.48,61.92c-5.69958,0 -10.32,4.62042 -10.32,10.32c0,5.69958 4.62042,10.32 10.32,10.32c5.69958,0 10.32,-4.62042 10.32,-10.32c0,-5.69958 -4.62042,-10.32 -10.32,-10.32zM113.52,61.92c-5.69958,0 -10.32,4.62042 -10.32,10.32c0,5.69958 4.62042,10.32 10.32,10.32c5.69958,0 10.32,-4.62042 10.32,-10.32c0,-5.69958 -4.62042,-10.32 -10.32,-10.32zM41.13219,99.71969c-1.27749,0.04213 -2.42632,0.78902 -2.98323,1.9395c-0.55691,1.15048 -0.43009,2.51487 0.32932,3.543c0,0 17.99505,25.51781 47.52172,25.51781c29.52667,0 47.52172,-25.51781 47.52172,-25.51781c1.10578,-1.54735 0.74781,-3.69813 -0.79953,-4.8039c-1.54735,-1.10578 -3.69813,-0.74781 -4.8039,0.79953c0,0 -16.40495,22.64219 -41.91828,22.64219c-25.51333,0 -41.91828,-22.64219 -41.91828,-22.64219c-0.6674,-0.96274 -1.77882,-1.51971 -2.94953,-1.47813z"></path></g></g></svg>