<svg xmlns="http://www.w3.org/2000/svg" x="0px" y="0px"
width="100" height="100"
viewBox="0 0 226 226"
style=" fill:#000000;"><g fill="none" fill-rule="nonzero" stroke="none" stroke-width="1" stroke-linecap="butt" stroke-linejoin="miter" stroke-miterlimit="10" stroke-dasharray="" stroke-dashoffset="0" font-family="none" font-weight="none" font-size="none" text-anchor="none" style="mix-blend-mode: normal"><path d="M0,226v-226h226v226z" fill="none"></path><g fill="#000000"><path d="M54.24,16.33203v110.22797h-13.56v-22.6h-9.04v22.6h-13.56v81.36h76.84h63.28h49.72v-140.12h-49.72v-16.81758l-13.56,-4.52v-28.38242h-9.04v25.3632l-9.04,-3.01039v-22.35281h-9.04v19.34242zM63.28,28.8768l85.88,28.62078v141.38242h-22.6v-14.21328c7.75535,-2.03345 13.56,-9.06336 13.56,-17.42672c0,-9.93177 -8.14823,-18.08 -18.08,-18.08c-9.93177,0 -18.08,8.14823 -18.08,18.08c0,8.36336 5.80465,15.39327 13.56,17.42672v14.21328h-22.6v-72.32h-31.64zM72.32,54.24v9.04h27.12v-9.04zM72.32,72.32v9.04h67.8v-9.04zM167.24,85.88h22.6v13.56h-22.6zM72.32,90.4v9.04h36.16v-9.04zM117.52,90.4v9.04h22.6v-9.04zM72.32,108.48v9.04h67.8v-9.04zM167.24,108.48h22.6v13.56h-22.6zM103.96,126.56v9.04h36.16v-9.04zM167.24,131.08h22.6v13.56h-22.6zM36.16,144.64h13.56v9.04h-13.56zM63.28,144.64h13.56v9.04h-13.56zM167.24,153.68h22.6v13.56h-22.6zM36.16,162.72h13.56v9.04h-13.56zM63.28,162.72h13.56v9.04h-13.56zM167.24,176.28h22.6v13.56h-22.6zM36.16,180.8h13.56v9.04h-13.56zM63.28,180.8h13.56v9.04h-13.56z"></path></g></g></svg>