<svg className="inline" xmlns="http://www.w3.org/2000/svg" x="0px" y="0px"
width="50" height="50"
viewBox="0 0 172 172"
><path d="M0,172v-172h172v172z" fill="none"></path><g fill="#ffffff"><path d="M129.11352,24.08c-5.92024,0 -8.6172,4.08672 -8.6172,8.70664v46.33336c0,1.89888 -1.53768,3.44 -3.44,3.44c-1.90232,0 -3.53632,-1.54112 -3.53632,-3.44v-63.71224c0.07224,-4.15552 -2.50432,-8.52776 -8.52776,-8.52776c-6.02344,0 -8.62064,4.68872 -8.62064,8.62064v60.22408c0,1.89888 -1.53768,3.44 -3.44,3.44c-1.89888,0 -3.4916,-1.53768 -3.49504,-3.43656v-0.00344v-67.10408c0.00344,-3.47784 -2.6832,-8.62064 -8.56216,-8.62064c-5.8824,0 -8.62064,5.1428 -8.62064,8.62064v70.49936c0,1.89888 -1.54112,3.44 -3.44,3.44c-1.89888,0 -3.45376,-1.54112 -3.45376,-3.44v-56.59488c0,-6.32616 -5.1428,-8.62064 -8.60688,-8.62064c-3.32304,0 -8.59312,2.23256 -8.59312,8.2216v84.51392c0,1.89888 -1.54112,3.44 -3.44,3.44c-1.89888,0 -3.44,-1.54112 -3.44,-3.44v-24.08c0,-4.75064 -3.44,-17.2 -10.32,-17.2c-4.75064,0 -6.88,3.84936 -6.88,8.6v43c0,34.4 24.08,55.04 55.04,55.04c6.88,0 27.52,0 27.52,0c15.21856,0 30.96,-11.57904 30.96,-30.96c0,0 0,-103.34448 0,-108.07448c0,-4.73 -2.56624,-8.88552 -8.48648,-8.88552z"></path></g></svg>