<svg xmlns="http://www.w3.org/2000/svg" x="0px" y="0px"
width="50" height="50"
viewBox="0 0 172 172"
style=" fill:#000000;"><g fill="none" fill-rule="nonzero" stroke="none" stroke-width="1" stroke-linecap="butt" stroke-linejoin="miter" stroke-miterlimit="10" stroke-dasharray="" stroke-dashoffset="0" font-family="none" font-weight="none" font-size="none" text-anchor="none" style="mix-blend-mode: normal"><path d="M0,172v-172h172v172z" fill="none"></path><g fill="#fcd34d"><path d="M135.9875,24.08c-5.9125,0 -8.61344,4.085 -8.61344,8.7075v46.3325c0,1.89469 -1.53188,3.44 -3.44,3.44c-1.89469,0 -3.53406,-1.54531 -3.53406,-3.44v-63.70719c0.06719,-4.16563 -2.49937,-8.53281 -8.53281,-8.53281c-6.02,0 -8.61344,4.68969 -8.61344,8.62688v60.21344c0,1.90812 -1.54531,3.44 -3.44,3.44c-1.89469,0 -3.49375,-1.53188 -3.49375,-3.42656v-0.01344v-67.09344c0,-3.48031 -2.6875,-8.62688 -8.55969,-8.62688c-5.88563,0 -8.62688,5.14656 -8.62688,8.62688v70.49312c0,1.89469 -1.54531,3.44 -3.44,3.44c-1.89469,0 -3.45344,-1.54531 -3.45344,-3.44v-56.59875c0,-6.31562 -5.14656,-8.61344 -8.61344,-8.61344c-3.31906,0 -8.58656,2.23062 -8.58656,8.22375v88.96969c-0.13437,0.08063 -0.29562,0.1075 -0.45687,0.16125l-0.01344,-0.16125l-17.2,-20.64c-4.47469,-4.81062 -12.04,-4.81062 -16.85062,0c-4.82406,4.47469 -4.82406,12.04 0,16.86406l0.37625,0.49719c0.12094,0.3225 0.24187,0.645 0.47031,0.92719l29.30719,37.65188l9.39281,12.17437l-0.01344,-0.12094l1.20938,1.55875c0.01344,0 0.01344,0 0.02687,0.01344c5.375,7.12188 13.51813,11.35469 22.53469,11.86531c0.43,0.04031 0.90031,0.06719 1.38406,0.08063c0.14781,0 0.29563,0.02687 0.44344,0.02687c0.01344,0 0.02687,-0.01344 0.05375,-0.01344c0.09406,0 0.18812,0.01344 0.29562,0.01344h27.52c15.22469,0 30.96,-11.58312 30.96,-30.96c0,0 0,-103.34781 0,-108.07781c0,-4.73 -2.56656,-8.88219 -8.4925,-8.88219z"></path></g></g></svg>