<svg xmlns="http://www.w3.org/2000/svg" x="0px" y="0px"
width="100" height="100"
viewBox="0 0 226 226"
style=" fill:#000000;"><g fill="none" fill-rule="nonzero" stroke="none" stroke-width="1" stroke-linecap="butt" stroke-linejoin="miter" stroke-miterlimit="10" stroke-dasharray="" stroke-dashoffset="0" font-family="none" font-weight="none" font-size="none" text-anchor="none" style="mix-blend-mode: normal"><path d="M0,226v-226h226v226z" fill="none"></path><g fill="#000000"><path d="M115.26,9.04c-13.70125,0 -24.86,11.15875 -24.86,24.86c0,13.70125 11.15875,24.86 24.86,24.86c13.70125,0 24.86,-11.15875 24.86,-24.86c0,-13.70125 -11.15875,-24.86 -24.86,-24.86zM92.66,63.28c-13.70125,0 -24.86,11.15875 -24.86,24.86v56.5c0,4.99672 4.06094,9.04 9.04,9.04c4.97906,0 9.04,-4.04328 9.04,-9.04v-43.08125c0,-1.21828 1.04172,-2.26 2.26,-2.26c1.21828,0 2.26,1.04172 2.26,2.26v103.25375c0,7.0625 3.79609,12.1475 10.87625,12.1475c6.69172,0 11.72375,-5.19094 11.72375,-12.1475v-58.05375c0,-1.25359 1.00641,-2.26 2.26,-2.26c1.25359,0 2.26,1.00641 2.26,2.26v59.325c0.01766,0.03531 0.12359,-0.03531 0.14125,0c0.61797,6.25031 5.33219,10.87625 11.5825,10.87625c7.0625,0 10.87625,-5.085 10.87625,-12.1475v-102.40625c0,-1.21828 1.04172,-2.26 2.26,-2.26c1.21828,0 2.26,1.04172 2.26,2.26v42.23375c0,4.99672 4.06094,9.04 9.04,9.04c4.97906,0 9.04,-4.04328 9.04,-9.04v-56.5c0,-13.70125 -11.15875,-24.86 -24.86,-24.86z"></path></g></g></svg>