<svg xmlns="http://www.w3.org/2000/svg" x="0px" y="0px"
width="100" height="100"
viewBox="0 0 226 226"
style=" fill:#000000;"><g fill="none" fill-rule="nonzero" stroke="none" stroke-width="1" stroke-linecap="butt" stroke-linejoin="miter" stroke-miterlimit="10" stroke-dasharray="" stroke-dashoffset="0" font-family="none" font-weight="none" font-size="none" text-anchor="none" style="mix-blend-mode: normal"><path d="M0,226v-226h226v226z" fill="none"></path><g fill="#000000"><path d="M103.96,50.5675v24.43625c24.40094,0 16.20844,8.1925 32.4875,8.1925h8.1925v-24.43625h-8.1925c-16.27906,0 -8.08656,-8.1925 -32.4875,-8.1925zM40.68,94.92c-2.48953,0 -4.52,2.03047 -4.52,4.52v13.56h153.68v-13.56c0,-2.48953 -2.01281,-4.52 -4.52,-4.52zM4.52,122.04c-2.48953,0 -4.52,2.01281 -4.52,4.52v94.92c0,2.50719 2.03047,4.52 4.52,4.52h216.96c2.50719,0 4.52,-2.01281 4.52,-4.52v-94.92c0,-2.50719 -2.01281,-4.52 -4.52,-4.52zM27.12,144.64h13.56v22.6h-13.56zM58.76,144.64h13.56v22.6h-13.56zM90.4,144.64h13.56v22.6h-13.56zM122.04,144.64h13.56v22.6h-13.56zM153.68,144.64h13.56v22.6h-13.56zM185.32,144.64h13.56v22.6h-13.56zM27.12,180.8h13.56v22.6h-13.56zM58.76,180.8h13.56v22.6h-13.56zM90.4,180.8h13.56v22.6h-13.56zM122.04,180.8h13.56v22.6h-13.56zM153.68,180.8h13.56v22.6h-13.56zM185.32,180.8h13.56v22.6h-13.56z"></path></g></g></svg>