<svg xmlns="http://www.w3.org/2000/svg" x="0px" y="0px"
width="100" height="100"
viewBox="0 0 172 172"
style=" fill:#000000;"><g fill="none" fill-rule="nonzero" stroke="none" stroke-width="1" stroke-linecap="butt" stroke-linejoin="miter" stroke-miterlimit="10" stroke-dasharray="" stroke-dashoffset="0" font-family="none" font-weight="none" font-size="none" text-anchor="none" style="mix-blend-mode: normal"><path d="M0,172v-172h172v172z" fill="none"></path><g fill="#000000"><path d="M172,54.94368c-0.21672,5.47992 -2.9068,14.964 -4.97424,20.04144c-0.7568,1.8576 -2.77952,3.43656 -3.27144,5.36984c-0.40936,1.5996 0.80496,3.74616 0.31304,5.29072c-1.24184,3.8872 -2.57312,6.14384 -8.50368,6.81464c-6.49472,0.73272 -5.2632,-3.43656 -10.49544,-6.06128c-5.504,-2.75888 -11.75448,1.71312 -18.146,1.8576c-3.53288,0.07912 -7.53016,-1.04576 -10.96672,0.71896c-5.3148,2.73136 -3.03752,4.75752 -6.04064,10.27872c-2.86552,5.27008 -10.43352,11.89896 -16.426,11.34856c-3.12008,-0.28552 -4.61648,-3.39528 -8.0496,-1.7888c-1.5652,0.73272 -1.30032,3.80464 -2.31168,4.61992c-1.57896,1.27624 -3.9904,2.43208 -6.23672,3.1304c-3.23704,1.00792 -8.12184,0.66392 -11.03208,2.38392c-5.17376,3.05816 -2.78984,5.0396 -3.82528,8.9956c-1.74752,6.67016 -10.82912,6.2092 -18.25952,7.1724c-8.33512,1.07672 -14.3792,1.46888 -21.61696,-3.1476c-2.37704,-1.51704 -4.44448,-3.85624 -6.9832,-4.9708c-2.35984,-1.03544 -4.41352,0.18232 -6.53256,-1.24184c-4.11424,-2.76232 -9.05064,-14.85392 -8.89584,-19.5048c0.13416,-3.97664 2.8724,-14.66472 5.68976,-17.46488c4.80568,-4.77816 13.29904,-0.40248 19.67336,-5.2804c3.47096,-2.65568 8.5656,-8.3248 9.9932,-11.7132c1.03888,-2.46648 -0.1032,-5.14968 1.55144,-7.63336c1.38976,-2.08808 4.9536,-4.60272 6.72176,-6.58072c4.7816,-5.3492 9.72832,-8.46584 16.07512,-6.06128c2.29448,0.86688 -0.52632,2.78296 2.86896,3.268c3.01,0.42656 2.99968,-1.09392 4.55456,-2.39424c1.36568,-1.14208 4.37224,-8.72384 7.0348,-8.57592c2.1328,0.11696 4.69216,5.85832 6.36056,7.23088c1.01136,0.83248 4.41696,1.13864 5.06712,2.11216c1.03544,1.548 -0.09288,7.55768 0.4988,8.0496c1.84728,1.548 6.192,-1.9436 9.34304,-0.09976c0.61232,-7.74688 6.93848,-10.86696 13.416,-11.43112c3.47096,-0.30272 7.8776,2.23944 10.63304,1.68904c4.04888,-0.8084 4.47888,-4.26216 7.45448,-5.96152c5.85144,-3.34024 18.60352,-3.00312 24.22448,0.42312c4.49264,2.73824 4.17272,5.08088 9.7868,6.89032c3.53632,1.14208 7.5852,2.07088 11.30728,2.22568z"></path></g></g></svg>